<svg width="100" height="100" viewBox="0 0 100 100" fill="none" xmlns="http://www.w3.org/2000/svg">
<path d="M30.1867 41.8894C23.6485 43.1469 17.3273 45.0332 11.2773 47.4643C20.298 67.822 33.6186 85.7485 50.0321 100C55.0239 95.6689 59.7174 91.0021 64.0988 86.042C55.2952 78.6506 47.4819 70.0436 40.8894 60.4866C43.9008 60.1652 46.9529 59.9975 50.0321 59.9975C60.3549 59.9975 70.2573 61.8419 79.4542 65.2372C82.9268 59.5644 86.0468 53.6261 88.7868 47.4783C76.7684 42.6579 63.7054 40.0031 50.0321 40.0031C43.2361 39.9891 36.6165 40.6458 30.1867 41.8894Z" fill="#D32B4E"/>
<path d="M50 0C39.2973 0 28.866 1.18765 18.8144 3.45117C12.3711 4.90429 6.09061 6.79055 0 9.08202C1.04449 15.8027 2.5095 22.3697 4.39502 28.7551C10.3907 26.3658 16.5898 24.4236 22.9924 22.9985C31.701 21.0423 40.7352 20.0084 50 20.0084C66.0879 20.0084 81.4569 23.1102 95.605 28.7551C97.477 22.3697 98.9555 15.8027 100 9.08202C84.414 3.19966 67.5664 0 50 0Z" fill="#D32B4E"/>
</svg>
